<?xml version="1.0" encoding="utf-8"?>
<!-- Generator: Adobe Illustrator 26.1.0, SVG Export Plug-In . SVG Version: 6.00 Build 0)  -->
<svg version="1.1" id="Слой_1" xmlns="http://www.w3.org/2000/svg" x="0px"
     y="0px"
     viewBox="0 0 458 333" style="enable-background:new 0 0 458 333;" xml:space="preserve">
<style type="text/css">
	.st0{fill:#777474;}
	.st1{fill:#B7B3B3;}
	.st2{fill:#645549;}
	.st3{fill:#E17C21;}
	.st4{fill:#F8F3F3;}
	.st5{fill:#CB6920;}
	.st6{fill:#954B15;}
	.st7{fill:#06040E;}
	.st8{fill:#A89E99;}
	.st9{fill:#010103;}
	.st10{fill:#803916;}
	.st11{fill:#030207;}
	.st12{fill:#D4B59F;}
	.st13{fill:#E68E41;}
	.st14{fill:#A99F9A;}
	.st15{fill:#602E09;}
	.st16{fill:#52220A;}
	.st17{fill:#241913;}
	.st18{fill:#53403A;}
	.st19{fill:#6D6663;}
	.st20{fill:#54413B;}
	.st21{fill:#767373;}
	.st22{fill:#6B380A;}
	.st23{fill:#A55A15;}
	.st24{fill:#83685F;}
	.st25{fill:#41190B;}
	.st26{fill:#A9682D;}
</style>
    <path class="st0" d="M457.9,56.9c-1.9,1.2-0.9,3-1,4.5c-0.2,12.1,0.5,24.3-1.2,36.4c-6.1,5.3-14.1,6.9-20.9,10.7
	c-1.9,1-3.9,1.7-5.8,2.7c-3.4,1.8-6.9,3.3-10.4,4.6c-2.9,1.2-4.5,0-4.8-3c-0.3-3.8-0.3-7.6,0-11.4c0.2-2.4,1.7-3.8,3.8-4.9
	c1.8-0.9,3.6-1.6,5.5-2.4c3.1-1.3,4.8-3.5,4.6-6.9c0-0.3,0-0.7,0-1c0.6-7.8,0.6-7.8-6.5-5.1c-4.9,1.9-6.2,1-6.5-4.3c0-1,0.1-2,0-3
	c-1-6.8,1.2-11.5,8.3-13.5c4.2-1.2,6-4.1,5.9-8.6c-0.1-3.1,0.8-6.2,1.1-9.3c0.2-1,0.8-1.8,1.7-2.3c8.3-4,16.3-8.6,25.4-11
	c0.3-0.1,0.6-0.1,1-0.1L457.9,56.9z"/>
    <path class="st1" d="M54.9,332.9c-11.4-6.8-23.5-12-35.2-18.1c-1.2-0.6-2.3-1.2-3.5-1.8c-14.8-7.4-14.8-7.4-13.9-24
	c5.6,0.2,9.6,4.2,14.5,5.9c8.9,4.4,17.7,9,26.7,13.3c3.5,1.8,7,3.5,10.5,5.3c1.6,0.8,3.2,1.6,3.9,3.5c0.5,5.3,1.7,10.7-0.9,15.8
	L54.9,332.9z"/>
    <path class="st2" d="M56.9,332.9c-0.1-5.7-0.1-11.3-0.2-17c0.1-0.2,0.3-0.4,0.4-0.6c9-5.3,18.6-9.3,27.7-14.2
	c3.1-1.5,6.1-3.2,9.2-4.5c1.6-0.7,3.4-1.7,4.6,0.6c0.6,5.2,1.8,10.5-1,15.6c-12.5,6.3-24.9,12.7-37.4,19c-0.6,0.3-1.3,0.3-1.4,1.1
	L56.9,332.9z"/>
    <path class="st3" d="M277.5,50.8l8.8,4c1.7-0.5,3.6,0.4,4.3,2c-0.3,2.7-2.9,2.9-4.6,4c-1.5,1-3.4,1.2-4.8,3.1
	c1.9,1.9,4.5,2.6,6.7,3.9c3.7,2.3,3.8,3.8,0,5.9c-5.5,3-11.3,5.7-16.9,8.6c-1.3,0.7-2.9,0.9-3.7,2.8c2.1,1.8,4.9,2.6,7.2,4.1
	c2.8,1.7,2.9,3.4,0,5.2c-2.2,1.4-4.8,2.2-7.5,4.1c3.4,2.4,7,3.8,10.5,5.5c4.5,2.8,9.9,4.1,13.9,7.8c0,0.8-0.4,1.6-1.2,2
	c-8.8,4.5-17.3,9.7-26.7,12.9c-3.7-0.2-6.5-2.3-9.6-3.9s-5.8-1.8-9-0.2c-6.5,3.4-13.1,6.5-19.9,10c3.2,3.1,8.1,3.2,10.5,7
	c-1.1,3.5-4.8,3.7-7.3,5.3c-1.7,1-3.5,1.9-5.3,2.7c-4.9,2-9.2,5.2-14.4,6.7c-0.5,0-1,0-1.5-0.1c-4.1-2.4-9.3-3.1-12.2-7.4
	c1.5-4.4,6.7-3.8,9.4-7.1c-1.8-2.1-4.5-2.6-6.7-4c-3.2-2.1-3.2-3.3,0-5.4c2.3-1.5,5-2.5,7.9-4.1c-3.1-1.6-5.8-2.9-8.4-4.2
	c-2.3-1.2-5.1-0.9-7.1,0.8c-6.8,5.2-13.2,3.5-19.7-0.7c-4-2.6-4.2-3.9-0.1-6.1c6.9-3.7,13.9-7.1,21.4-10.8c-2.9-1.3-5.4-2.6-7.9-3.8
	c-1.8-1-3.9-1-5.7-0.1c-7.1,3.5-14.2,7.1-21.8,10.8c2.9,1.9,5.8,2.9,8.2,4.5s2.6,3.4-0.1,4.8c-8.3,4.1-16.3,8.9-25.1,12.1
	c-5.2-1-9.6-3.7-14-6.5c-0.2-0.4-0.3-0.9-0.2-1.4c3.9-3.2,8.4-4.8,12.3-6.4c-3.9-1.4-8.5-3.1-12.2-6.5c16.8-9.2,34.2-17.4,51.4-25.9
	c19.9-9.9,39.7-19.8,59.6-29.7c5,1.1,9.6,3,13.2,6.8c-0.6,3-3.5,3.2-5.5,4.5c-1.5,1-3.3,1.5-4.9,2.7c5.8,4.8,11.6,6.1,18.3,1.6
	c4.9-3.2,10.6-5.2,15.9-8.3c-2.3-3.8-8.2-2.7-9.3-7.6C268,53.4,272,50.4,277.5,50.8z"/>
    <path class="st3" d="M321.3,39.1c13.2-7.1,27.2-12.6,40.8-19c5.4,0.7,9.5,4.2,14.4,6.1c3.9,2.8,9.3,3.1,12.1,7.6
	c-0.8,3.1-3.7,3.6-6,4.6c-13.5,5.9-26.8,12.3-40.3,18.3c-1.4,0.5-2.7,1.3-3.8,2.3c2.7,3,7.4,2.7,9.2,6.5c-0.2,2.5-2.3,3-4.1,3.8
	c-2.8,1.1-5.5,2.3-8.1,3.7c-1.9,1.1-5.8,0.8-4,5.2c0.4,1.1-1.6,1.9-2.7,2.6c-2.1,1.2-4.4,2.1-6.7,3.5c3.3,3,7.7,3.4,10.3,6.5
	c0.2,0.5,0.1,1-0.1,1.4c-4.1,3.3-8.9,5.7-14,7c-5-1.7-9.4-4.6-14.2-6.7c-2.8-1.5-5.6-2.8-8.4-4.3c-1.5-0.8-3.8-1.3-3.6-3.6
	s2.3-2.6,3.8-3.5c1.8-1.1,4.1-1.4,5.5-3.6c-2.2-2-5-2.7-7.3-4.2c-2.8-1.8-2.9-3.6,0-5.2c5.5-2.9,10.7-7.2,17.3-2.3
	c1.8,1.3,3.8,0.7,6-0.4c-3.2-2.8-8.1-2.9-10.3-6.8c1.4-3.5,5.1-3.8,7.9-5.4c1.6-0.9,3.4-1.3,5-2.2c3.4-1.7,7-3.2,10.6-4.8
	C328,42.6,322.6,43.5,321.3,39.1z"/>
    <path class="st4" d="M388.1,33.8L376.1,27c2.8-4.4,8.1-4.4,11.4-6.5c-3.9-1.6-8.5-2.5-11.4-6.6c7.2-3.4,14.4-6.7,21.5-10.1
	c3.2-1.8,7.1-1.7,10.3,0.1c14.9,7.7,29.9,15,44.9,22.6c1.5,0.7,3.2,1.1,4.1,2.6c-6.8,4.1-14.3,6.8-21.5,10.1
	c-1.6,0.8-3.1,1.7-4.5,2.7c-4.5,3.1-9.3,5.8-14.8,6.7c-4.3-2.2-9.5-3.1-12.6-7.4c2.1-4.9,7.4-4.2,10.9-6.6c-0.6-0.8-2.1-0.8-3.2-1.6
	c-5.3-3.8-10.6-4.2-16.1-0.3c-1.5,1-3.3,1.6-5.1,1.9C389.3,34.7,388.6,34.4,388.1,33.8z"/>
    <path class="st1" d="M28.9,163.4c0-9.7,0-19.5,0.1-29.2c0-1.5-0.8-3.4,1.1-4.4c9.3,2.9,17.6,8,26.1,12.5c0.9,0.5,1.5,1.4,1.7,2.4
	c0.6,5,1,10.1-0.3,15.1c-1.5,2.1-3.3,0.8-4.9,0.2c-2.6-1.1-5-2.6-8-3.8c-1.5,4.7,0.4,9.5-1.2,14c-0.2,0.5-0.7,0.8-1.2,0.9
	C37.5,169.1,32.3,167.8,28.9,163.4z"/>
    <path class="st5" d="M71,142.6c7.9-4,15.9-7.9,23.8-12c2.5-1.3,4.5-1.5,7,0c3.2,1.9,6.6,3.4,9.9,5c5.2,0.4,10.1,2.9,13.5,6.9
	c-4.3,6.2-13.1,9.1-19.2,5.4c-5.5-3.3-10.2-3.2-15.6,0.2c-4.6,2.9-9.7,5-14.6,7.4c-1.7,0.8-3.4,2.4-5.4,0.7c-0.5-1-0.8-2.1-0.8-3.2
	C69.7,149.4,68.3,145.7,71,142.6z"/>
    <path class="st6" d="M16.2,204.4c0-11.3,0-22.6,0-33.9c5.7,1,11,2.5,14,8.1c0.4,10.2,0.8,20.4-0.2,30.6c-0.3,1.2-1.5,2-2.8,1.7
	c-0.1,0-0.2-0.1-0.4-0.1C23,209.2,18.7,208.3,16.2,204.4z"/>
    <path class="st5" d="M249.4,63.9L236.5,57c8.1-4.1,16.3-8.1,24.4-12.3c1.6-0.9,3-1.1,4.6-0.3c4,2.1,8,4.2,11.9,6.3
	c-4.7,1.3-8.7,4.1-13.1,6.1C260.2,60.9,255.6,64,249.4,63.9z"/>
    <path class="st7" d="M56.8,143.6c-8.8-4.9-18.2-8.5-26.7-13.9c3.8-2,7.6-4.1,11.4-6c1-0.7,2.3-0.7,3.4-0.2c8.3,4.4,16.6,8.6,25,12.9
	C67,141.5,62.1,142.9,56.8,143.6z"/>
    <path class="st3" d="M2.9,272.1L16,265c2.4-3.1,6.2-4,9.4-5.9c1.5-0.7,3-1.6,4.8-1.4c4.2,2.2,9.3,3,12.2,7.3
	c-0.3,2.2-2.2,2.8-3.8,3.6c-7.2,3.6-14.4,7.4-21.8,10.8c-0.5,0.1-1,0.2-1.5,0.2C11,277.5,5.6,277,2.9,272.1z"/>
    <path class="st6" d="M30,258.2l-4.1,1.8c-3.7-0.8-7.1-2.1-9.8-5v-16.9c5.1,0,8.6,3.8,13.1,5.2c4.5,2.7,9.7,4.2,13.9,7.5
	c0.2,0.5,0.2,1,0,1.4C39,255,35.1,258,30,258.2z"/>
    <path class="st5" d="M320.2,51.9c-4,2.9-9.2,3.6-13,6.9c-6.9,4.8-11.4,4.3-16.9-1.9l-4.1-2.1l21-9.8
	C312.2,46.2,316.9,47.8,320.2,51.9z"/>
    <path class="st8"
          d="M2.9,272.1c3.9,3.1,8.8,4.4,13,7.1c2.8,5.6,2.6,11.2,0.2,16.8l-13.8-7C2.4,283.4,1.1,277.7,2.9,272.1z"/>
    <path class="st9" d="M56.8,143.6c4.3-2.4,9.2-4,13.1-7.1c2.1,1.7,0.3,4.1,1.1,6.1l-0.3,10.9c-3.4,4.2-8.4,5.8-13.3,7.3l-0.6-0.3
	C56.8,154.8,56.8,149.2,56.8,143.6z"/>
    <path class="st6" d="M124.8,142.6c-4-3-8.7-4.6-13-7c0.1-5.3,0.2-10.6,0.2-15.9c5.7-0.4,9.6,3,13.8,6c0,0.3,0,0.6,0.1,0.9
	c2.4,5.1,1.8,10.3,0.6,15.5C126.1,142.7,125.4,142.9,124.8,142.6C124.8,142.6,124.8,142.6,124.8,142.6z"/>
    <path class="st10" d="M16.2,204.4c4.3,2,8.2,4.7,12.8,6c0.5,0.4,0.8,0.9,1,1.4c0.8,4.9,0.7,9.9-0.2,14.7c-0.4,1.1-1.7,1.7-2.8,1.3
	c0,0-0.1,0-0.1,0c-3.9-1.6-8.2-2.5-10.8-6.4L16.2,204.4z"/>
    <path class="st11" d="M16.2,221.3l12.8,6.1c0.5,0.4,0.9,0.9,1.1,1.5c0.4,5.1,1.7,10.4-1.1,15.3l-12.7-5.9V221.3z"/>
    <path class="st5"
          d="M125.7,125.6l-13.8-6c4.1-3.2,8.9-5.2,13.7-7.1c4.8,1.4,9,4.2,13.9,6.5C134.6,121.6,130.5,124.3,125.7,125.6z"
    />
    <path class="st5" d="M29,177.4l-12.8-6.9c3.7-3.3,8.7-4.4,12.8-7.2l13.1,7c0,2.8-2.5,3-4.2,3.9c-2.4,1.4-4.9,2.6-7.5,3.5
	C29.8,177.9,29.4,177.7,29,177.4z"/>
    <path class="st12" d="M376.1,13.9l13.1,6.8L376.1,27c-4.9-1.8-9.6-4.1-14-6.9L376.1,13.9z"/>
    <path class="st13" d="M320.2,51.9l-13-6.8c4.8-1.6,9-4.9,14-6l12,6.7C329.2,49,324.5,50.1,320.2,51.9z"/>
    <path class="st14" d="M16.1,255.1c3.5,1.2,6.8,2.9,9.8,5L16,265L16.1,255.1z"/>
    <path class="st15" d="M416,47.8c5.3-1,9.5-5.1,14.9-5.9c-0.3,5-0.7,9.9-1,14.9c-0.1,2.2-1.7,2.8-3.2,3.2c-9.6,2.4-12.2,8.6-10.9,18
	c0.5,3.7,1.5,3.6,4.1,2.3c2.4-1.2,4.8-2.2,7.2-3.4c2.1-1.1,3.1-0.6,2.9,1.8c-0.4,4.3-0.6,8.6-1.1,12.8c-0.2,2.2-2.4,2.9-4,3.2
	c-8.9,1.9-11.1,7.5-10,15.9c0.5,4.1,0.5,6,5,3.3c2.8-1.7,6-2.7,9-4c2.6,5.8,0.8,11.4-0.8,17l-14,6.7c-2.2-3-0.2-6.1-0.3-9.2
	c-0.2-5.6-0.5-6-5.6-3.7c-14,6.4-28,13-42.2,19.1c-5.8,2.5-6.9,1.7-7.1-4.7c0-0.7,0.2,0.1,0-0.5c-0.7-2.4,1.9-6.3-2.1-6.9
	s-8.9,4-9.1,8.1s-0.1,8,0,12c0.1,3.6-1.2,6.1-4.6,7.5c-0.4,0.2-0.9,0.5-1.3,0.7c-6.6,2-9.2,6.3-8.1,13.1c1,5.8-1.7,9.2-7,11.5
	c-6.8,3-8.5,7.2-6.8,14.3c0.6,2.9,2.1,1.6,3.7,1.1c2.9-0.9,5.1-3.9,8.7-2.5c0,2.7,0,5.3,0,8c-1,2.3-3.1,3.5-5.3,4.2
	c-5.8,2-7.3,6-7.2,11.9c0.3,13.2,0.4,26.4-0.1,39.6c-0.1,0.5-0.2,1.1-0.5,1.6c-4,3.4-8.5,6-13.9,6.6c-0.4-0.4-0.7-0.9-0.9-1.4
	c-1-9.9-0.3-19.9-0.4-29.8c-0.1-7-0.1-13.9,0-20.9c0-3.4-1.2-4.2-4.1-2.5c-2.3,1.3-4.7,2.4-7.1,3.6c-3.7,1.6-7.1,3.6-10.8,5.2
	c-1.6,0.8-3.5,2.4-5.3,0c-1-5.1-1-10.4-0.1-15.5c1.7-3.3,5-4.2,8-5.5c4-1.8,6-4.4,5.5-8.9c-0.2-1.6,0.1-3.3,0-5
	c-0.3-4.2,1.6-6.9,5.3-8.6c5.3-2.5,10.3-5.4,15.6-7.7c4.7-2,6.7-5.1,6-10.1c-0.1-0.6,0.1,0.2,0-0.5c-1.1-6.9,1.7-11.2,8.3-13.8
	c5.2-2,7.5-9,5.5-14.1c-0.6-1.6-1.6-1.4-2.8-1c-1.7,0.6-3.3,1.6-5,2.3c-4.3,1.8-5.7,0.9-6-3.8c-0.2-2.6,0-5.3,0-7.9
	c-0.1-2.9,1.6-5.6,4.3-6.7c1.8-0.9,3.5-1.9,5.3-2.7c3.2-1.3,4.3-3.7,4.4-7.1c0.1-3.7-1-7.7,1.4-11.1l-0.2-0.2c1.2-2.2,3.7-2.7,5.6-4
	s5.3-1,3.8-5.4c-0.7-1.9,2.8-2.9,4.7-3.7c9.6-4.2,19-8.7,28.6-12.9c12.3-5.7,24.7-11.3,37-17C413.1,47.9,414.5,47.6,416,47.8z"/>
    <path class="st15" d="M236.5,248.3l-0.2,1c-1,2.3-3.1,3.5-5.3,4.2c-5.8,2-7.3,6-7.2,11.9c0.3,13.2,0.4,26.5-0.1,39.7
	c-0.1,0.6-0.3,1.1-0.5,1.6c-4.5,3.2-8.9,6.9-15,6.5c-0.4-0.5-0.7-1-0.8-1.5c-0.9-8.9-0.2-17.7-0.4-26.6c-0.2-5.7,0-11.3,0-17
	c-0.1-19.5-0.1-39-0.1-58.6c-0.1-1.7,0.1-3.3,0.5-4.9c1.7-3.5,5.4-4.3,8.4-5.7c3.8-1.8,6-4.3,5.2-8.5c-1.6-8.8,2.4-13.6,10.4-16.4
	c4.2-1.5,8-4,12.1-5.9c3.3-1.5,5.1-3.9,4.5-7.4c-1.6-9,2.6-13.8,10.7-16.7c4.8-1.7,9.2-4.6,13.9-6.7c4.3-1.9,5.7-1,6,3.7
	c0.2,2.5,0,5,0,7.5c0.1,3.6-1.6,5.8-4.7,7.5c-10.4,5.7-10.3,5.8-8.8,18.3c3.1-1.3,5.9-3.1,8.9-4.2c2.6-1,4.2-0.2,4.5,2.7
	c0.3,4,0.3,8-0.1,11.9c-0.2,2.4-1.8,3.8-3.8,4.9c-3.5,1.9-7.1,3.6-10.7,5.4c-7.6,3.7-15.1,7.6-22.7,11.3c-3,1.5-4.8,3.5-4.3,7
	c1.5,9.2,0.5,18.5,0.8,27.8C237.8,243.3,238.5,246,236.5,248.3z"/>
    <path class="st16" d="M208.6,203.4v64.8c-1.7,3.1-4.9,3.9-7.7,5.2c-3.7,1.6-5.2,4.1-5,8.2c0.3,3.1,0.2,6.3-0.2,9.4
	c-0.1,0.5-0.3,1-0.6,1.4c-3.9,3.2-8.5,5.5-13.5,6.8c-5.4,1.3-9.7,4.9-14.8,6.7c-2.5-3.2-1.1-7-1.3-10.6c-0.1-3-0.8-4-3.7-2.4
	c-2.4,1.4-5,2.6-7.5,3.8c-4.8,2.2-9.5,4.7-14.2,7c-3.1,1.4-6.1,3.1-9.2,4.5c-1.6,0.8-3.2,1.8-5.1,0.9c-0.4-0.4-0.7-0.8-0.9-1.3
	c-0.7-4.6-0.7-9.4,0-14c1.2-2.9,4-3.7,6.4-5c2.8-1.4,5.5-2.9,8.1-4.5c5.1-2.6,10.2-5.2,15.5-7.4c12.4-6.1,10.2-3.9,10.5-16.4
	c-0.1-1.5,0.1-3,0.4-4.4c1-2.4,3.3-3.2,5.3-4.2c6.2-3.1,12.4-6.2,18.6-9.4c3-1.6,5.1-11.1,3.1-13.8c-0.4-0.6-1-0.8-1.7-0.7
	c-0.8,0.2-1.6,0.5-2.3,0.9c-9.3,4.1-9.2,4-9.7-6.5c-0.3-6.4,1.8-10.2,7.8-12.6c5.5-2.2,10.7-5.2,16-7.9c1.7-0.9,3.5-2.1,5.6-1
	C209.1,201.7,209.1,202.7,208.6,203.4z"/>
    <path class="st16" d="M332,193.4c-3.6,1.7-7.2,3.3-10.8,5c-2.2,1.1-3,0.5-3-1.9c0.1-3.3,0.2-6.6,0-10c-0.2-2.8,0.8-4.6,3.4-5.2
	c9.5-2.4,12.3-8.7,10.6-17.7c-0.7-3.6,1-5.8,4.3-6.7c8.2-2.3,11.4-7.5,9.7-15.8c-0.1-0.5-0.1-1,0-1.5c0-9.3,2.5-12.3,11.6-14.3
	c2.1-0.5,2.3,0.5,2.3,2c0,3.3,0.1,6.6,0,10c-0.1,3,0.9,3.4,3.5,2.2c14.7-6.8,29.5-13.5,44.3-20.2c0.9-0.4,1.8-0.9,2.7-1.3
	c3.4-1.6,4.5-0.7,4.5,3.2c-0.1,4.2-0.6,8.2-1.1,12.3c-8,3.6-16.1,7.1-24.1,10.8c-13.3,6.1-26.5,12.3-39.8,18.2
	c-2.9,1.3-4.3,2.9-4,6.2c0.3,4.8-0.1,9.6,0.1,14.4c0.1,2.4-0.9,3.4-2.8,4.4C339.6,189.3,335.5,190.8,332,193.4z"/>
    <path class="st16" d="M318.3,258.2c0-15,0.1-30.1-0.1-45.1c-0.1-3.7,1.2-5.8,4.6-7.1c3.2-1.3,6.2-3.1,9.3-4.6v50.8
	C328,255.4,323.9,258.6,318.3,258.2z"/>
    <path class="st16" d="M222.5,306c0-14.9,0.2-29.7-0.1-44.6c-0.1-4.2,1.3-6.4,5.1-7.8c3.1-1.2,5.9-2.9,8.9-4.4V300
	C232.2,303.2,228.2,306.5,222.5,306z"/>
    <path class="st10" d="M277.4,220.3l14-7c1,0.9,1.5,2.2,1.4,3.6c0,13.3,0.7,26.6-0.4,39.9c-0.7,2-2.3,2.3-3.9,1.6
	c-3.9-1.7-8-2.9-10.9-6.2l-0.2-10.9c-2.8-5.4-1-11.1-1.3-16.6C275.9,223.1,276.1,221.5,277.4,220.3z"/>
    <path class="st14" d="M97.7,312.8l0.1-16.7l0.6-0.5c2-0.5,3.6,0.6,5.1,1.4c7.4,4,15.4,6.8,22.2,11.9v0.2c2.4,5.3,2.5,11.3,0.1,16.6
	c-7.8-2.3-14.4-7-21.8-10.2L97.7,312.8z"/>
    <path class="st11" d="M277.5,252.2l13.8,6.1c5.3,0.9,9.8,3.7,14,6.8l-0.1,0.3c2.5,5.2,2.5,11.3,0.1,16.6
	c-9.4-3.2-17.7-8.6-26.6-12.6c-1.5-0.7-1.3-1.7-1.2-2.7C277.4,261.8,277.5,257,277.5,252.2z"/>
    <path class="st2" d="M428.1,126.7c-0.9-5.7,1.3-11.3,0.8-17l26.9-12c0,2.8-0.3,5.7,0.2,8.4c1.2,6.4-1.5,9.7-7.5,11.8
	C441.5,120.4,434.8,123.8,428.1,126.7z"/>
    <path class="st17" d="M277.3,224.4v16.9c-8.8,3.1-16.6,8.3-25.2,12c-0.9,0.4-1.6,1.3-2.7,0.8c-2.6-4.7-1.3-9.7-1.1-14.6
	c0.5-1.6,1.7-2.9,3.2-3.5c7.4-3.8,14.9-7.6,22.4-11.2C275,224,276.2,223.9,277.3,224.4z"/>
    <path class="st11" d="M208.5,329.8c-9-2.9-16.8-8.3-25.5-12c-1.3-0.5-1.5-2-1.5-3.4c0.1-4.8,0.1-9.6,0.2-14.4
	c5.1-0.1,8.6,3.7,13.1,5.2c4.5,2.7,9.6,4.2,13.7,7.6l-0.1,0.3C210.9,318.4,211,324.5,208.5,329.8z"/>
    <path class="st18" d="M318.3,258.2l13.8-6.1c0,1.1,0.1,2.3,0.1,3.4c0.1,14.3,0.1,14.3-13.9,19.6c-2.5-5.1-2.6-11.1-0.1-16.2
	C318.3,258.8,318.3,258.5,318.3,258.2z"/>
    <path class="st17"
          d="M208.5,329.8c0-5.5,0-11.1-0.1-16.6l14-6.1c2.6,5.3,2.3,10.7,0.1,16C218.1,325.7,213.7,328.5,208.5,329.8z"/>
    <path class="st19" d="M139.7,303c4.4-2.9,9-5.2,13.9-7c2.6,5.4,2.3,10.7,0.1,16.1c-4.4,2.8-9.1,5.2-14,7
	C137.3,314,137.3,308.1,139.7,303z"/>
    <path class="st20" d="M222.6,323.1l-0.1-16c0-0.3,0-0.7,0.1-1l13.8-6c0.1,1.1,0.1,2.3,0.2,3.5C236.5,317.9,236.5,317.9,222.6,323.1z
	"/>
    <path class="st21" d="M139.7,303c0,5.3,0,10.7,0,16.1c-4.4,2.7-8.8,5.4-13.9,6.7l-0.1-16.6L139.7,303z"/>
    <path class="st17" d="M318.3,259.1l0.1,16.2l-13.1,6.7l-0.1-16.6C309.5,263.1,313.6,260.5,318.3,259.1z"/>
    <path class="st21" d="M153.7,312.1c0-5.4,0-10.7-0.1-16.1c3.8-2.6,8-4.4,13.1-6.7v16.5L153.7,312.1z"/>
    <path class="st11" d="M249.5,238.1c0,5.3-0.1,10.6-0.1,15.9c-4.8-0.9-8.5-4-12.9-5.8c0-2.7,0-5.3,0-7.9c2.6-2.6,5.9-4.3,9.5-4.9
	c1.2,0.1,2.4,0.5,3.4,1.4C249.7,237.2,249.8,237.7,249.5,238.1z"/>
    <path class="st10"
          d="M194.5,306.1l-12.8-6.1c-0.1-0.3-0.2-0.6-0.2-1c4-3.1,8.6-4.8,13.1-7C197,296.5,196.9,301.8,194.5,306.1z"/>
    <path class="st11" d="M16,296c-0.1-5.6-0.1-11.2-0.2-16.8l0.2-0.1c1.3-0.3,2.7-0.1,3.8,0.5c7,3.4,13.9,6.9,20.9,10.4
	c1.7,0.7,3,2.2,3.4,4c0,5,1.6,10.1-1.2,14.8C33.5,305.5,25,300.2,16,296z"/>
    <path class="st14" d="M42.9,308.9l0.2-15.8c0.4-0.4,0.9-0.6,1.4-0.6c4.8,1.9,10,3.2,13.4,7.7c0.5,5.3,1.5,10.6-0.8,15.8h-0.4
	C51.8,314.3,47.2,311.9,42.9,308.9z"/>
    <path class="st22" d="M57.1,316l-0.3-16.8c5.5-4.8,12.4-6.9,18.6-10.2c2.8-1.5,5.5-3.9,9.2-3.2c0.5,0.3,0.9,0.8,1.1,1.3
	c0.6,5.1,1.7,10.2-0.9,15.1C75.9,307.2,66.6,311.9,57.1,316z"/>
    <path class="st15" d="M84.9,302.1c0-5.3,0-10.7,0-16.1c3.1-4.5,7.8-6,12.9-7c0.4,0.3,0.8,0.8,1,1.3c0.6,5.3,1.7,10.6-0.9,15.8v0.1
	L84.9,302.1z"/>
    <path class="st22" d="M208.6,203.4v-2c-2.8-5.2-1-10.7-1.4-16.1c0-0.6,0-1.2,0-1.8c0.1-4-0.3-8,0.4-12c0.1-0.5,0.4-1,0.7-1.5
	c1.5-1.7,3.5-3,5.8-3.6c6-2,8.1-6,7.3-12.1c-0.3-2.5-0.5-5.3,1.2-7.6l13.1-7c1.6-2.5,4.5-3.2,7-4.4c7-3.2,13.4-7.7,20.9-9.6
	c9.6-4.1,18.9-8.8,27.9-14c8.4-5.4,17.1-10.5,26.8-13.1l14-6.7c-0.1,1-0.1,2,0,3c1.5,9.5-0.5,16.9-11.2,19.5
	c-3.2,0.8-2.8,3.6-2.8,6.1c-0.1,11.4,0,11.5,9.8,6.7c3.3-1.6,3.8-1,4.3,2.6c1.1,8.8-1,15.1-10.4,17.5c-3,0.8-4.4,2.9-3.7,6
	c2.1,10-2.1,15.7-11.6,18.7c-4.2,1.3-8,4-12.1,5.9c-2.1,1-3.8,2.4-3.2,4.9c2.6,11.6-3.4,17.4-13.5,20.5c-0.2,0.1-0.3,0.1-0.5,0.2
	c-2.8,4.1-7.5,5.2-11.7,7c-1,0.6-2.4,0.3-3-0.8c-0.2-0.3-0.3-0.7-0.3-1.1c-0.4-5.1-1.5-10.2,1-15.1l2.2-1.1
	c13.3-6.7,13.3-6.7,11.3-22.5l-13.5,6.6c0-5.2,0-9.7,0-14.1c-0.2-1.7,0.8-3.3,2.4-3.9c0.6-0.2,1.2-0.6,1.8-0.9
	c10.9-5.6,10.8-5.5,9.8-17.8c-0.2-2.8-1.1-3.1-3.3-2c-7.4,3.8-14.8,7.5-22.3,11.1c-1.9,0.8-3,2.9-2.4,4.9
	c2.2,10.3-2.5,16.1-12.1,18.9c-0.6,0.2-1.2,0.7-1.8,0.9c-10.1,3-15.6,8.9-13.1,20.1c0.6,1.8-0.4,3.8-2.2,4.5
	C216.3,199.7,212.8,202.3,208.6,203.4z"/>
    <path class="st13" d="M139.7,132.6l27.3-13.7l-13.3-6.8c8.9-4.5,17.3-8.6,25.7-12.9c1.6-0.8,2.9-0.2,4.2,0.5l10.8,5.4l-27.2,13.7
	c4.7,2.3,8.5,4.2,12.3,6.2c2,1,3.7,0,5.1-1c8.5-6.8,15.9-3.2,23.4,2.3l-12.7,6.5l12.8,6.6l-12.4,7.1c-4,3.6-9.1,5.2-13.8,7.6
	c-0.5,0.1-1,0.2-1.5,0.1c-4.6-2-9.8-3-13-7.5c2.7-4,7.4-4.6,11.6-7.1c-0.3,0.4-0.5,0.3-0.8,0c-6.9-4.9-13.8-6.4-21-0.6
	c-1.1,0.8-2.4,1.3-3.7,1.3C148.4,138.7,142.9,137.7,139.7,132.6z"/>
    <path class="st13" d="M290.4,56.9c5.3,3.5,10.8,5.5,16.9,1.9l12.9,6.5c-3.1,1.2-5.5,4.4-8.5,2.1c-5.3-4.1-10-2.4-14.9,0.6
	c-1.4,0.8-2.8,1.6-5.1,2.8l13.2,6.9l-13.1,6.8l12.4,7.1c-0.5,1.8-2.1,2.4-3.6,3.2c-6,3.1-12.1,6.1-18.2,9.1
	c-1.6,0.8-3.2,1.8-5.1,0.8c-4.5-1.2-8.2-3.9-13.5-6.2l12.5-6.4c-3.5-3.5-8.2-4.2-12.4-7.6l27.1-13.7L277.9,64L290.4,56.9z"/>
    <path class="st23" d="M167.6,146.6l13,7.1c2.6,4.8,1.4,9.8,0.9,14.8c-1.1,2.4-3,1.9-4.6,1c-16.5-8.1-33-16.2-49.4-24.7
	c-0.9-0.4-1.6-1.2-1.8-2.2l0.1-15.9l13.9,6.1c4.3,2.9,9,5.2,13.9,7C158.7,140.8,163.5,143.1,167.6,146.6z"/>
    <path class="st13" d="M221.9,105.4l-13.7-7c9.4-4.7,17.9-8.9,26.4-13.2c1.6-0.8,2.9,0,4.2,0.7c3.4,1.7,6.8,3.4,10.9,5.5l-13.5,7.1
	l12.9,6.6c-2.2,2.5-5.1,3.2-7.6,4.5s-5,2.6-7.6,3.8c-12.5,6.2-12.5,6.2-25-1.4L221.9,105.4z"/>
    <path class="st5" d="M277.4,104.7c9.3-3.7,17.9-8.7,26.9-13c4.9,1.7,9.6,4,14,6.9c-8.9,4.5-17.6,9.4-26.9,13.1
	C286.4,110,281.7,107.7,277.4,104.7z"/>
    <path class="st13" d="M263.5,125.7c-9,5.2-18.3,9.9-27.9,14l-13.4-6.8l15.5-7.8c1.2-0.5,2.4-1.1,3.6-1.8c5.5-4.1,10.8-4,16.4-0.1
	C259.3,124.3,261.5,124.8,263.5,125.7z"/>
    <path class="st13" d="M249.4,63.9c5.3-1.6,9.9-4.8,14.9-7l11.9,6.7c-2.3,2.5-5.4,3.3-8,4.7s-5.5,2.3-7.9,4.1
	c-8,5.8-15.7,5.5-23.1-1.5C240.6,67.7,245.8,67.1,249.4,63.9z"/>
    <path class="st15" d="M222.5,146.7c0,0.3,0,0.7,0,1c2.4,11.9-2.1,19.6-14,22.8c-2.4-5.3-2.4-11.5,0-16.8
	C213.2,151.4,217.8,149,222.5,146.7z"/>
    <path class="st22" d="M208.6,153.7c0,5.6,0,11.2,0,16.8l0,0c-3.7,4-8.5,6-13.6,7.2c-0.7-0.4-1.2-1.1-1.4-1.9
	c-0.6-4.7-0.6-9.6,0.1-14.3c3.4-4.8,8.6-6.5,14-7.9L208.6,153.7z"/>
    <path class="st5"
          d="M207.6,153.6l-12.9,7c-5.2-0.8-10-2.3-13-7.1c4.3-3,9-5.3,14-7C199.1,149.7,204.1,150.3,207.6,153.6z"/>
    <path class="st13" d="M388.1,33.8l1.9,0.2c4.8,1.3,9.6,2.4,12.4,7c-0.3,1.5-1.5,2.1-2.7,2.7c-12.5,5.6-24.9,11.5-37.4,17
	c-3.6,1.5-7,3.5-10.7,4.8c-1.5,0.5-2.9,1.6-4.5,0.3l-12.2-7c8.4-3.9,16.2-7.3,23.8-11C368.5,43,378.9,39.6,388.1,33.8z"/>
    <path class="st5" d="M347.2,65.8l15-6c5.2,0.7,9.8,2.4,13,6.9l-33.7,15.4c4.6,2.1,3.6,3.6,0,5.1c-3.2,1.3-6.2,2.9-9.3,4.4l-12.9-7.2
	c3.4-1.7,6-3.2,8.9-4.5c3.5-1.5,4.2-2.9-0.6-4.4C334.3,71.8,341.2,69.8,347.2,65.8z"/>
    <path class="st3" d="M375.1,66.7l-13-6.9c12.4-5.7,24.7-11.4,37.1-17.1c1-0.5,1.9-1.2,2.8-1.9c0.4-0.5,1.2-0.5,1.7-0.1
	c0.1,0.1,0.1,0.2,0.2,0.2l12.1,6.7L375.1,66.7z"/>
    <path class="st12" d="M403.9,41l-1.9-0.2l-12-6.8c3.5-1.8,7-3.4,10.5-5.3c1.6-0.9,3.6-0.9,5.1,0.1c3.5,1.9,7,3.6,10.7,5.4
	C412.7,37.7,407.4,37.7,403.9,41z"/>
    <path class="st24" d="M42.9,170.3v-16.7l13.9,6.9l0.1-0.2l0.2,0.1c2.3,4.9,1,10.1,0.9,15.1c-0.2,0.8-0.6,1.6-1.3,2.1
	C51.4,176.7,46.6,174.6,42.9,170.3z"/>
    <path class="st3" d="M42.9,170.3l13.1,7.1c-3.3,4.2-8.2,5.6-13,7c-4.8-1.4-9.7-2.8-13-7c3.5-3.1,8.5-3.8,12-7
	C42.3,170.5,42.6,170.4,42.9,170.3z"/>
    <path class="st3" d="M125.7,142.5c18.3,9,36.2,18.7,54.8,27c0.3,0.4,0.3,0.9,0.1,1.3c-2.5,3.1-6.7,3.5-10,6.4c2.4,2,5.3,2.9,7.8,4.3
	s3.3,3.2,0.5,4.8c-7.4,4.2-15,7.9-22.7,11.4c-1.1,0.6-2.4,0.3-3.1-0.7c-0.5-0.9-0.7-2-0.8-3c0-3.2-0.4-6.4,0.4-9.6
	c2.4-4.1,7.6-4.1,10.8-7.2c-5.5-4.8-11.4-5.9-18-2.8c-4.8-1.4-9.4-3.1-13-6.8c-0.3-2.3,2.4-2.5,3.2-4.4c-5.4-3.9-10.7-6.7-17.1-1.9
	c-4.6,3.4-9.2,3.2-13.8-0.1s-9-3.2-13.8-0.2c-5,2.9-10.2,5.5-15.6,7.9c-1.8,0.9-4,2.3-5.5-0.7c-0.4-4-1.6-8.1,1.1-11.8
	c8-4,16-7.9,23.9-12.1c2.5-1.3,4.7-1.6,6.8,0.1c8.3,6.8,15.8,3.5,23-2C125.1,142.6,125.4,142.6,125.7,142.5z"/>
    <path class="st16" d="M71,156.6v13c-3.6,4.6-8.2,7-14.1,7c0.1-5.4,0.2-10.8,0.2-16.1l13.5-6.9L71,156.6z"/>
    <path class="st23" d="M30,177.4c4.3,2,8.3,4.8,13,6c5.1,1.1,9.5,4.1,14.2,6.2c4.6,2.4,9.3,4.7,14,7c4.7,2.5,9.4,4.8,14.2,7.1
	c7.4,3.8,14.8,7.4,22.2,11.1c2.2,1.1,4.6,2.1,5.4,4.8c0.5,10.5,1,21-0.3,31.4c-1.5,2.5-3.4,1.1-5.1,0.4c-2.6-1-4.8-2.7-7.9-3.4
	c-0.9,4.9-0.2,9.8-0.4,14.6c-0.1,5.1,0.5,10.2-0.4,15.3c-0.2,0.5-0.6,1-1.1,1.4c-0.3-0.1-0.5-0.1-0.8-0.1c-4.9-1.4-9.7-2.9-13-7.2
	c-0.8-3.6-0.4-7.2-0.4-10.9c0-3.2-1.1-5.3-4-6.7c-5.7-2.7-11.2-5.6-16.9-8.4c-4-1.9-4.2-1.6-4.4,3c-0.1,2.9,0.5,6-0.7,8.8
	c-0.3,0.4-0.7,0.8-1.2,0.9c-5-0.9-9.6-3.2-13.4-6.6v-1.1c-2.8-5.1-1-10.6-1.4-16c0.1-3.8-0.1-7.5,0.1-11.3s-1.4-6.1-4.8-7.6
	c-2.9-1.2-5.9-2.3-7.9-4.9c0-0.3,0-0.6,0-1c0-11,0-22,0-32.9L30,177.4z"/>
    <path class="st13" d="M44,293c-0.3,0.1-0.6,0.1-0.9,0.1l-27.1-14c6.6-4.4,14-7.2,20.9-10.9c1.7-0.9,3.4-2,5-3
	c0.5-0.6,1.3-0.8,2.1-0.6c8,3.4,15.6,7.5,23.3,11.4c3.7,1.9,4.2,3.8,1.4,5.3C60.6,285.5,52.9,290.5,44,293z"/>
    <path class="st5" d="M44,265.2h-2c-3.5-3.2-8.4-3.9-12-6.9c4.3-2.1,8.3-4.7,13-6.1c4.7,1.4,8.7,4.1,13,6.1
	C53.3,262.9,48.4,263.6,44,265.2z"/>
    <path class="st1" d="M42.9,234.4v16.7c-4.9-1.8-9.6-4.2-14-6.9l0.2-15.9C34.8,227.8,38.8,231.2,42.9,234.4z"/>
    <path class="st6" d="M42.9,234.4l-13.8-6.1c-0.1-0.3-0.2-0.6-0.2-0.9c0-5.3,0-10.7,0.1-16.1c4.2,1.1,7.7,3.7,11.6,5.3
	c2,0.9,2.4,2.4,2.3,4.4C42.9,225.5,42.9,229.9,42.9,234.4z"/>
    <path class="st16" d="M263.4,193.4v16.3c5.2-1.4,9.4-4.4,14-6.4v16.9l-0.1,4l-27.8,13.8c-0.1-0.3-0.1-0.6-0.1-0.9
	c-0.8-0.8-1.6-1.6-2.9-1.1l-10,4.2c-0.4-9.4,0.8-18.8-1-28.1c-0.6-3.3,0.6-5.4,3.9-7C247.5,201.5,255.4,197.4,263.4,193.4z"/>
    <path class="st6" d="M305.3,265c-5.1-1.5-9.6-4.1-14-6.8c0-15,0-29.9,0.1-44.9l14-7L305.3,265z"/>
    <path class="st6" d="M194.5,306.1c0-4.7,0-9.3,0.1-14l-0.1-0.1c3.9-3.8,8.4-6.4,14-6.9c0,9.3,0,18.5,0,27.8
	C203.5,311.4,199,308.8,194.5,306.1z"/>
    <path class="st25" d="M208.5,285.1l-14,6.9c0-3.9,0.3-7.9-0.1-11.8s1.2-6.1,4.8-7.5c3.2-1.2,6.2-3,9.3-4.6
	C208.5,273.8,208.5,279.4,208.5,285.1z"/>
    <path class="st15" d="M208.5,184.3c0,5.7,0,11.3,0,17c-9,3.4-17.2,8.4-25.9,12.5c-1.3,0.5-2.1,1.7-2,3.1c0.1,3.8,0.1,7.6,0,11.4
	c0,2.4,0.8,3,3,1.9c2.6-1.4,5.4-2.6,8-4c2.1-1.1,3-0.5,3,1.9c-0.1,3.3-0.2,6.6,0,9.9c0.2,2.7-1,4.1-3.3,5.3
	c-8.2,4.2-16.8,7.8-24.6,12.8c-1.6,1.9-3.8,3.3-6.1,4c-4.4,1.6-5.9,4.6-5.6,9.2c0.4,2.9,0.3,5.9-0.2,8.8l-14.8,7
	c-3.2-4.7-1.2-10-1.6-15c0-5,0.2-10,0-15.3c-3.3,0.8-5.7,2.6-8.4,3.6c-1.6,0.6-3.3,1.8-4.8-0.3c-1.5-10.5-0.8-21-0.4-31.5
	c1-3.5,4.2-4.2,6.8-5.7c2.1-1.2,4.3-2.2,6.5-3.3c0.4-0.2,0.9-0.5,1.3-0.7c4.8-2.2,9.4-4.6,14.1-7c16.3-8.1,32.5-16.2,48.8-24.3
	C204.1,184.8,206,182.9,208.5,184.3z"/>
    <path class="st6" d="M97.9,296c-0.1-5.6-0.1-11.2-0.2-16.8l0.2-0.3c5.5,0.3,9.4,4.2,14.3,5.9c4.4,2.6,9.4,4,13.4,7.4l0.3,0.7
	c0,5.3-0.1,10.7-0.1,16c-7.7-2.7-14.6-7.1-22-10.5C101.8,297.6,99.8,296.9,97.9,296z"/>
    <path class="st21" d="M139.7,269.2c0.1,5.3,0.1,10.6,0.2,15.9c-4.1,3.7-9.5,5-14.1,7.9v0c-2.8-5.1-1.5-10.4-1.1-15.7
	C128.4,272.2,133.6,269.9,139.7,269.2z"/>
    <path class="st22" d="M154.7,278.1c-2.1-4.9-0.9-10-0.7-15c0.1-2,2.5-2.4,4.1-3.1c2.8-1.3,5.4-3.2,8.5-3.8v6
	C166.6,274.1,166.6,274.1,154.7,278.1z"/>
    <path class="st10"
          d="M246.5,236.1c0.4-0.9,1.5-1.4,2.5-1.1c0.4,0.1,0.3,1.4,0.5,2.2C248.3,237.4,247.4,236.7,246.5,236.1z"/>
    <path class="st3" d="M44,265.2l12-6.9c0.3,0,0.7,0,1,0c6.6,1.2,12,5.4,17.9,8.1c3.2,1.5,6.9,2.4,9.2,5.5c0.1,2.7-2.3,2.8-3.8,3.9
	c-1.7,1.2-4,1.4-5.3,3.3c2.2,3.4,7.7,2.4,8.9,6.9c-8.9,4.6-17.7,9.4-26.9,13.2c-4.6-1.5-8.6-4-12.9-6.2l26.2-13.8L44,265.2z"/>
    <path class="st5" d="M83.8,285.9l-11.9-6.7c3.7-3.4,8.5-4.1,11.9-7.1c0.2-0.3,0.6-0.3,0.9-0.1c0.1,0,0.1,0.1,0.1,0.1l12.1,7
	L84.8,286L83.8,285.9z"/>
    <path class="st5" d="M208.5,184.3c-13.1,5.7-25.5,12.5-38.3,18.8c-5.5,2.7-11,5.4-16.4,8.2c-2.5-4.7-2.6-9.3,0.1-13.9l27.4-13
	l-13.9-7.2l13.4-6.7c5.7-0.5,9.8,2.9,13.9,6.1l1.1,0.8c5,0.5,9.1,3,12.9,6.2C208.5,183.8,208.5,184.1,208.5,184.3z"/>
    <path class="st15" d="M208.5,183.5c-4.6-1.5-8.6-4-12.9-6.2l12.9-6.9L208.5,183.5z"/>
    <path class="st6" d="M194.5,176.5l-13.9-6.1c0-0.3,0-0.6-0.1-0.9c0-5.3,0-10.6,0.1-15.9c0.3-0.1,0.7-0.1,1-0.1c4,3.1,8.8,4.6,13,7.1
	C194.6,165.9,194.5,171.2,194.5,176.5z"/>
    <path class="st3"
          d="M167.6,146.6c-4.9-1.7-9.6-4.1-14-6.9c1.4-0.5,2.7-1.2,3.9-2.1c8.2-6.6,15.3-3,22.9,2.5L167.6,146.6z"/>
    <path class="st13" d="M56.9,190.4c-4.9-1.7-9.6-4.1-13.9-7c4.7-1.3,8.7-4.1,13-6l1-0.9c5-1.7,9.7-4.1,14.1-7c7.4-3.6,15-7,22.3-10.9
	c3.3-1.8,6.1-1.9,9.1,0.2c1.2,0.8,2.8,1.2,4,2.1c3.7,2.6,7.3,2.7,10.8-0.1c8-6.6,14.5-1.6,21.3,2.5c-1.5,2.4-4.3,2.4-5.8,4.1
	c-0.7,0.5-1.6,0.6-2.3,0.2c-7-3.5-11.6,1.6-16.8,4.6c-0.3,0.2-0.3,0.9-0.3,1.4c-0.2,5,0.1,10.1-0.1,15.1s0.6,9.9-0.5,14.8
	c-0.9,2.1-2.5,1.8-4.2,1.2c-1.3-0.4-2.5-0.9-3.6-1.7c-4.7-3.2-9.4-3.4-14.2-0.1c-1.7,1.2-3.7,2.2-6,1.7c-4.9-1.7-9.6-4.1-14-7
	c2.7-3.1,7-3.6,10.3-6.3c-1.6-1.2-3.5-1.7-5-2.7c-3.8-2.6-7.5-2.5-11.6-0.1C62.3,189.6,60,191.7,56.9,190.4z"/>
    <path class="st7" d="M111.9,171.4c3.6-3.1,8.1-4.5,12.2-6.6c3.3-1.6,5.6,1.8,8.6,2.4c4.2,2.2,8.3,4.8,12.9,6.2
	c3,1.3,7.1,0.7,8.2,5.1c-4.2,3.2-9,5.5-14.1,6.8C129.9,182,120.5,177.3,111.9,171.4z"/>
    <path class="st16" d="M153.8,197.4c0,4.7,0,9.3-0.1,13.9l-14.1,7c-2.5-5.1-1.2-10.5-1-15.7c3.6-5.2,9-7.1,14.9-8.2
	C153.6,195.4,153.7,196.4,153.8,197.4z"/>
    <path class="st9" d="M153.6,194.4l-13.7,7c-2.8-5.6-2.4-11.2-0.3-16.9l13.9-6c1.7,1.6,1.4,3.2,0.3,5
	C153.7,187.1,153.6,190.7,153.6,194.4z"/>
    <path class="st13"
          d="M153.8,183.4l-0.3-5c-2.1-2.6-5.7-2.6-7.9-4.9c8-5.4,14-0.1,21,3.6C162.1,179.7,158.2,182,153.8,183.4z"/>
    <path class="st26" d="M84.8,272.1h-1l-26.9-13.9c0-4.3,0.1-8.6,0-12.9c-0.1-2.7,0.9-3.2,3.2-2c7.4,3.7,14.8,7.4,22.2,11.1
	c1.7,0.7,2.8,2.5,2.5,4.3C84.8,263.2,84.8,267.7,84.8,272.1z"/>
    <path class="st6" d="M125.8,225.4v33.8l-0.7,0.3c-4.8-1.3-9.3-3.5-13.1-6.6c-0.1-0.2-0.2-0.5-0.2-0.7c0-11.2,0-22.5,0-33.8
	c0.4-0.3,0.8-0.5,1.3-0.4C117.5,220.1,122.6,221.1,125.8,225.4z"/>
    <path class="st3" d="M112.7,218.4h-0.5l-0.5,0.1l-27-14c8.9-7.5,17.9-5.6,26.8,0c5.3,1.1,9.8,3.8,14.2,6.8c0.2,0.5,0.2,1,0,1.4
	C121.8,215.1,117.9,218.2,112.7,218.4z"/>
    <path class="st6" d="M97.8,262.3c0-5.1,0-10.3,0-15.4c0-0.3,0.3-0.5,0.7-1.2l13.2,6.5l0,0c2.5,4.9,1.3,10.2,1.1,15.3
	c-0.1,0.5-0.4,1-0.7,1.5C106.3,269.2,102,265.9,97.8,262.3z"/>
    <path class="st1" d="M97.8,262.3l13.9,6.9c2.4,5.6,2.6,11.1-0.1,16.6L97.9,279C97.9,273.4,97.9,267.8,97.8,262.3z"/>
    <path class="st3" d="M56.9,190.4c1.1-0.4,2.4-0.5,3.2-1.2c8.2-6.8,15.7-3.8,23.6,2.1c-4.3,2.3-8.2,4.7-12.8,6.1
	C65.9,195.7,61.2,193.3,56.9,190.4z"/>
    <path class="st1" d="M125.8,212.3c-0.1-0.3-0.1-0.6-0.2-0.9c-1.4-1.9-1.5-4.1-1.2-6.2c1-6.8-1.3-11.5-8.2-13.6
	c-1.8-0.5-3.3-1.7-4.3-3.2c0-5.6,0-11.3,0-16.9l25.5,12.2c0.7,0.3,1.5,0.6,2.2,0.8l0.3,16.9l-0.3,16.9c-0.3,0-0.6,0.1-0.9,0.2
	C133.9,217.8,129.4,215.6,125.8,212.3z"/>
    <path class="st16"
          d="M139.7,269.2l-14,6.9c-0.2-0.2-0.4-0.5-0.6-0.7c-1-5.5-2-11,0.7-16.3l0.1,0l13.9-7L139.7,269.2z"/>
    <path class="st5" d="M125.8,212.3c4.6,1.5,8.6,4,12.9,6.2l-12.9,6.9l-13.1-7C117.1,216.4,121.1,213.6,125.8,212.3z"/>
    <path class="st11"
          d="M111.6,285.8c0-5.5,0.1-11.1,0.1-16.6l0.2,0.1c5.3,0.5,10.2,2.9,13.8,6.9l0,0l0.2,16.8L111.6,285.8z"/>
    <path class="st24" d="M111.9,188.4c4.3,1.2,7.9,3.8,12,5.6c2,0.9,1.9,2.4,1.8,4.1c0,4.4-0.1,8.9-0.1,13.3c-4.9-1.8-9.6-4.2-14-7
	C111.7,199,111.8,193.7,111.9,188.4z"/>
    <path class="st10" d="M125.7,276.1l-13.8-6.9l-0.2-17l13.9,6.9V276.1z"/>
</svg>
